<?xml version="1.0" encoding="UTF-8"?>
<svg width="26px" height="24px" viewBox="0 0 26 24" version="1.1" xmlns="http://www.w3.org/2000/svg" xmlns:xlink="http://www.w3.org/1999/xlink">
    <!-- Generator: Sketch 63.1 (92452) - https://sketch.com -->
    <title>thumb copy 17</title>
    <desc>Created with Sketch.</desc>
    <g id="Page-1" stroke="none" stroke-width="1" fill="none" fill-rule="evenodd">
        <g id="updated-homepage-to-match-mobile" transform="translate(-1029.000000, -2640.000000)" fill="#F9CF63" fill-rule="nonzero">
            <g id="thumb-copy-17" transform="translate(1029.000000, 2640.000000)">
                <g id="noun_like_1555605">
                    <path d="M4.5502807,9.33333333 L0.650093627,9.33333333 C0.285891319,9.33333333 -6.57498747e-14,9.65911978 -6.57498747e-14,10.0741452 L-6.57498747e-14,21.9258548 C-6.57498747e-14,22.3408802 0.285891319,22.6666667 0.650093627,22.6666667 L4.5502807,22.6666667 C4.91448301,22.6666667 5.2,22.3408802 5.2,21.9258548 L5.2,10.0741452 C5.20037433,9.65911978 4.91448301,9.33333333 4.5502807,9.33333333 Z" id="Path"></path>
                    <path d="M25.9995738,11.133746 C25.9995738,9.91358832 25.1723708,8.67875595 23.5925452,8.67875595 L16.4298453,8.67875595 C17.4530881,6.82499678 17.7539667,4.21764889 17.0426829,2.30993863 C16.5201941,0.906778895 15.5216693,0.0880172761 14.2295109,0.00471680563 L14.2086284,0.00299037101 C13.3677878,-0.0492342763 12.6398833,0.588683316 12.5699908,1.43895237 C12.3858838,3.33112471 11.5672043,6.67781823 10.3939483,7.86603685 C9.40607789,8.86650572 8.56054944,9.28559772 7.15886441,9.97962444 C6.95600577,10.0801893 6.73439549,10.1898179 6.5,10.3080786 C6.50426174,10.3594401 6.50681878,10.4108015 6.50681878,10.4634577 L6.50681878,22.3214739 C6.6760097,22.3801727 6.84306976,22.4384399 7.0071466,22.4954122 C9.32041699,23.302952 11.3195974,24 14.3752623,24 L20.1661094,24 C21.7463611,24 22.5731379,22.764736 22.5731379,21.54501 C22.5731379,21.1828903 22.5006884,20.8199074 22.3570679,20.4875688 C22.8833923,20.3917516 23.344086,20.1353761 23.6854511,19.7430438 C24.0728429,19.2971921 24.2863559,18.7045934 24.2863559,18.0744448 C24.2863559,17.7136199 24.2139064,17.3506371 24.070712,17.0191616 C25.3394309,16.7973148 26,15.6945546 26,14.6043112 C26,13.9720045 25.7775374,13.3353817 25.3436926,12.8692444 C25.776685,12.4026754 25.9995738,11.7660527 25.9995738,11.133746 Z" id="Path"></path>
                </g>
            </g>
        </g>
    </g>
</svg>